<svg xmlns="http://www.w3.org/2000/svg" xmlns:xlink="http://www.w3.org/1999/xlink" viewBox="0 0 198.23 88.33"><defs><style>.cls-1{fill:#fff;}.cls-2{fill:url(#linear-gradient);}.cls-3{fill:none;stroke-miterlimit:10;stroke-width:6px;stroke:url(#linear-gradient-6);}</style><linearGradient id="linear-gradient" x1="102.78" y1="37.54" x2="155.03" y2="89.79" gradientTransform="translate(6)" gradientUnits="userSpaceOnUse"><stop offset="0" stop-color="#485bff"/><stop offset="1" stop-color="#ff59f8"/></linearGradient><linearGradient id="linear-gradient-6" x1="74.45" y1="44.16" x2="198.23" y2="44.16" gradientTransform="matrix(1, 0, 0, 1, 0, 0)" xlink:href="#linear-gradient"/></defs><g id="Layer_2" data-name="Layer 2"><g id="Layer_1-2" data-name="Layer 1"><path class="cls-1" d="M0,50.62H5.35v4.87c.58-2.9,2.3-5.21,5.55-5.21a4.12,4.12,0,0,1,1.27.17v5.07a7.08,7.08,0,0,0-1.24-.1c-3.55,0-5.58,2.38-5.58,5.76v7.37H0Z"/><path class="cls-1" d="M14.56,44.07H19.9v4.66H14.56Zm0,6.55H19.9V68.55H14.56Z"/><path class="cls-1" d="M30.77,43.28a6.7,6.7,0,0,1,3.38.69v4.17a4.42,4.42,0,0,0-1.93-.34,2.28,2.28,0,0,0-2.55,2.55v.27h4.48v4.25H29.67V68.55H24.32V54.87H21.94V50.62h2.38V49.8C24.32,44.14,28.29,43.28,30.77,43.28Z"/><path class="cls-1" d="M35,59.59c0-6.24,4.49-9.31,8.55-9.31,3.18,0,5,1.72,5.32,2.38H49v-2h5.34V68.55H49v-2h-.1c-.28.65-2.14,2.38-5.32,2.38C39.47,68.9,35,65.83,35,59.59Zm9.66,4.55a4.55,4.55,0,1,0-4.38-4.55A4.32,4.32,0,0,0,44.64,64.14Z"/><path class="cls-1" d="M56.51,63.8l4.24-1.14a2.62,2.62,0,0,0,2.59,2.07c1,0,1.86-.49,1.86-1.49,0-.58-.34-1.13-1.52-1.51l-2.41-.9c-3-1.07-4.24-3-4.24-5.24,0-3.34,3-5.31,6.51-5.31s5.83,1.9,6.45,4.79l-4.17,1a2.09,2.09,0,0,0-2.07-1.69c-1,0-1.55.62-1.55,1.24s.35,1.14,1.55,1.52L66,58c1.93.66,4.49,2,4.49,5.24,0,3.62-3.07,5.66-7.07,5.66C59.79,68.9,57.06,67.21,56.51,63.8Z"/><path d="M91.8,76.16l.48-4.27a8.7,8.7,0,0,0,4.21.89c3.31,0,5.34-1.58,5.55-3.79l.14-1h-.25a7.11,7.11,0,0,1-5.48,2.38c-3.76,0-7.62-2.76-7.62-8.17,0-6.17,4.38-10.45,9.28-10.45,3.17,0,5,1.73,5.27,2.38h.17l.25-2h5.34l-1.72,16.41c-.76,7.1-6.55,8.69-10.52,8.69C95,77.23,92.87,76.92,91.8,76.16Zm6.27-10.52A4.89,4.89,0,0,0,103,60.58a3.71,3.71,0,0,0-3.89-4,5,5,0,0,0-5,5A3.74,3.74,0,0,0,98.07,65.64Z"/><path d="M112.39,52.13h5.35l-.52,5.14c.83-3,2.69-5.49,6.07-5.49a3.15,3.15,0,0,1,1.31.24l-.55,5a7.64,7.64,0,0,0-1.41-.1c-3.28,0-5.32,2-5.94,5l-.82,8.1h-5.35Z"/><path d="M124.61,61.85a10,10,0,0,1,10-10.07c4.66,0,9.69,3.28,7.79,11.38H129.57c.59,1.93,2.35,2.9,4.62,2.9a7.49,7.49,0,0,0,4.45-1.42l2,2.56a9.89,9.89,0,0,1-7.38,3.2C128.68,70.4,124.61,67.4,124.61,61.85ZM138,59.33c-.21-2.13-1.93-3.06-3.83-3.06a4.53,4.53,0,0,0-4.41,3.06Z"/><path d="M143.86,61.85a10,10,0,0,1,10-10.07c4.66,0,9.69,3.28,7.8,11.38h-12.8c.59,1.93,2.35,2.9,4.62,2.9a7.47,7.47,0,0,0,4.45-1.42l2,2.56a9.89,9.89,0,0,1-7.38,3.2C147.93,70.4,143.86,67.4,143.86,61.85Zm13.38-2.52c-.21-2.13-1.93-3.06-3.83-3.06A4.54,4.54,0,0,0,149,59.33Z"/><path d="M165.28,52.13h5.35l-.25,2.24a6.7,6.7,0,0,1,5.49-2.59c3.58,0,6.55,2.24,6,7.73l-1.11,10.55h-5.34l1-9.62c.24-2.24-.76-3.9-3-3.9s-3.38,1.66-3.66,3.9l-1,9.62h-5.34Z"/><path class="cls-2" d="M91.8,76.16l.48-4.27a8.7,8.7,0,0,0,4.21.89c3.31,0,5.34-1.58,5.55-3.79l.14-1h-.25a7.11,7.11,0,0,1-5.48,2.38c-3.76,0-7.62-2.76-7.62-8.17,0-6.17,4.38-10.45,9.28-10.45,3.17,0,5,1.73,5.27,2.38h.17l.25-2h5.34l-1.72,16.41c-.76,7.1-6.55,8.69-10.52,8.69C95,77.23,92.87,76.92,91.8,76.16Zm6.27-10.52A4.89,4.89,0,0,0,103,60.58a3.71,3.71,0,0,0-3.89-4,5,5,0,0,0-5,5A3.74,3.74,0,0,0,98.07,65.64Z"/><path class="cls-2" d="M112.39,52.13h5.35l-.52,5.14c.83-3,2.69-5.49,6.07-5.49a3.15,3.15,0,0,1,1.31.24l-.55,5a7.64,7.64,0,0,0-1.41-.1c-3.28,0-5.32,2-5.94,5l-.82,8.1h-5.35Z"/><path class="cls-2" d="M124.61,61.85a10,10,0,0,1,10-10.07c4.66,0,9.69,3.28,7.79,11.38H129.57c.59,1.93,2.35,2.9,4.62,2.9a7.49,7.49,0,0,0,4.45-1.42l2,2.56a9.89,9.89,0,0,1-7.38,3.2C128.68,70.4,124.61,67.4,124.61,61.85ZM138,59.33c-.21-2.13-1.93-3.06-3.83-3.06a4.53,4.53,0,0,0-4.41,3.06Z"/><path class="cls-2" d="M143.86,61.85a10,10,0,0,1,10-10.07c4.66,0,9.69,3.28,7.8,11.38h-12.8c.59,1.93,2.35,2.9,4.62,2.9a7.47,7.47,0,0,0,4.45-1.42l2,2.56a9.89,9.89,0,0,1-7.38,3.2C147.93,70.4,143.86,67.4,143.86,61.85Zm13.38-2.52c-.21-2.13-1.93-3.06-3.83-3.06A4.54,4.54,0,0,0,149,59.33Z"/><path class="cls-2" d="M165.28,52.13h5.35l-.25,2.24a6.7,6.7,0,0,1,5.49-2.59c3.58,0,6.55,2.24,6,7.73l-1.11,10.55h-5.34l1-9.62c.24-2.24-.76-3.9-3-3.9s-3.38,1.66-3.66,3.9l-1,9.62h-5.34Z"/><path class="cls-3" d="M77.45,75.52V78.8A6.52,6.52,0,0,0,84,85.33H188.71a6.52,6.52,0,0,0,6.52-6.53V45a6.52,6.52,0,0,0-6.52-6.52h-31l10.94-9.38L152.24,30.6l7-20.29L146.94,20l-3.29-6.57L137.4,25.94,121.77,10.31,128,32.19l-12.5-3.13,7.21,9.38H84A6.52,6.52,0,0,0,77.45,45v2.29"/></g></g></svg>