<svg xmlns="http://www.w3.org/2000/svg" xmlns:xlink="http://www.w3.org/1999/xlink" viewBox="0 0 198.23003 88.3126"><defs><linearGradient id="a" x1="85.3225" y1="35.0025" x2="137.5725" y2="-17.2475" gradientTransform="matrix(1, 0, 0, -1, 6, 90)" gradientUnits="userSpaceOnUse"><stop offset="0" stop-color="#485bff"/><stop offset="1" stop-color="#ff59f8"/></linearGradient><linearGradient id="b" x1="95.4325" y1="45.1125" x2="147.6825" y2="-7.13751" xlink:href="#a"/><linearGradient id="c" x1="103.54827" y1="53.22827" x2="155.79827" y2="0.97827" xlink:href="#a"/><linearGradient id="d" x1="113.17457" y1="62.85457" x2="165.42458" y2="10.60457" xlink:href="#a"/><linearGradient id="e" x1="122.21058" y1="71.89058" x2="174.46059" y2="19.64058" xlink:href="#a"/><linearGradient id="f" x1="74.44987" y1="45.82623" x2="198.23003" y2="45.82623" gradientTransform="matrix(1, 0, 0, -1, 0, 90)" xlink:href="#a"/></defs><path d="M0,50.62H5.35v4.87c.58-2.9,2.3-5.21,5.55-5.21a4.1201,4.1201,0,0,1,1.27.17v5.07a7.07878,7.07878,0,0,0-1.24-.1c-3.55,0-5.58,2.38-5.58,5.76v7.37H0Z" transform="translate(0 -0.01747)" fill="#8b5cf6"/><path d="M14.56,44.07H19.9v4.66H14.56Zm0,6.55H19.9V68.55H14.56Z" transform="translate(0 -0.01747)" fill="#8b5cf6"/><path d="M30.77,43.28a6.7,6.7,0,0,1,3.38.69v4.17a4.42,4.42,0,0,0-1.93-.34,2.28,2.28,0,0,0-2.55,2.55v.27h4.48v4.25H29.67V68.55H24.32V54.87H21.94V50.62h2.38V49.8C24.32,44.14,28.29,43.28,30.77,43.28Z" transform="translate(0 -0.01747)" fill="#8b5cf6"/><path d="M35,59.59c0-6.24,4.49-9.31,8.55-9.31,3.18,0,5,1.72,5.32,2.38H49v-2h5.34V68.55H49v-2h-.1c-.28.65-2.14,2.38-5.32,2.38C39.47,68.9,35,65.83,35,59.59Zm9.66,4.55a4.55,4.55,0,1,0-4.37683-4.71682q-.0031.08337-.00317.16682a4.32,4.32,0,0,0,4.08361,4.54411q.13806.00736.27639.00589Z" transform="translate(0 -0.01747)" fill="#8b5cf6"/><path d="M56.51,63.8l4.24-1.14a2.62,2.62,0,0,0,2.59,2.07c1,0,1.86-.49,1.86-1.49,0-.58-.34-1.13-1.52-1.51l-2.41-.9c-3-1.07-4.24-3-4.24-5.24,0-3.34,3-5.31,6.51-5.31s5.83,1.9,6.45,4.79l-4.17,1a2.09,2.09,0,0,0-2.07-1.69c-1,0-1.55.62-1.55,1.24s.35,1.14,1.55,1.52L66,58c1.93.66,4.49,2,4.49,5.24,0,3.62-3.07,5.66-7.07,5.66C59.79,68.9,57.06,67.21,56.51,63.8Z" transform="translate(0 -0.01747)" fill="#8b5cf6"/><path d="M91.8,76.16l.48-4.27a8.7,8.7,0,0,0,4.21.89c3.31,0,5.34-1.58,5.55-3.79l.14-1h-.25a7.11,7.11,0,0,1-5.48,2.38c-3.76,0-7.62-2.76-7.62-8.17,0-6.17,4.38-10.45,9.28-10.45,3.17,0,5,1.73,5.27,2.38h.17l.25-2h5.34l-1.72,16.41c-.76,7.1-6.55,8.69-10.52,8.69C95,77.23,92.87,76.92,91.8,76.16Zm6.27-10.52a4.89,4.89,0,0,0,4.93278-4.84685q.00093-.10659-.00278-.21315a3.71,3.71,0,0,0-3.89-4,5,5,0,0,0-5,5,3.74,3.74,0,0,0,3.96,4.06Z" transform="translate(0 -0.01747)"/><path d="M112.39,52.13h5.35l-.52,5.14c.83-3,2.69-5.49,6.07-5.49a3.15,3.15,0,0,1,1.31.24l-.55,5a7.63973,7.63973,0,0,0-1.41-.1,5.76462,5.76462,0,0,0-5.94,5l-.82,8.1h-5.35Z" transform="translate(0 -0.01747)"/><path d="M124.61,61.85a10,10,0,0,1,9.92975-10.06976L134.61,51.78c4.66,0,9.69,3.28,7.79,11.38H129.57c.59,1.93,2.35,2.9,4.62,2.9a7.49,7.49,0,0,0,4.45-1.42l2,2.56a9.89,9.89,0,0,1-7.38,3.2C128.68,70.4,124.61,67.4,124.61,61.85ZM138,59.33c-.21-2.13-1.93-3.06-3.83-3.06a4.53,4.53,0,0,0-4.41,3.06Z" transform="translate(0 -0.01747)"/><path d="M143.86,61.85a10,10,0,0,1,9.92975-10.06976L153.86,51.78c4.66,0,9.69,3.28,7.8,11.38h-12.8c.59,1.93,2.35,2.9,4.62,2.9a7.47,7.47,0,0,0,4.45-1.42l2,2.56a9.89,9.89,0,0,1-7.38,3.2C147.93,70.4,143.86,67.4,143.86,61.85Zm13.38-2.52c-.21-2.13-1.93-3.06-3.83-3.06A4.54,4.54,0,0,0,149,59.33Z" transform="translate(0 -0.01747)"/><path d="M165.28,52.13h5.35l-.25,2.24a6.7,6.7,0,0,1,5.49-2.59c3.58,0,6.55,2.24,6,7.73l-1.11,10.55h-5.34l1-9.62c.24-2.24-.76-3.9-3-3.9s-3.38,1.66-3.66,3.9l-1,9.62h-5.34Z" transform="translate(0 -0.01747)"/><path d="M91.8,76.16l.48-4.27a8.7,8.7,0,0,0,4.21.89c3.31,0,5.34-1.58,5.55-3.79l.14-1h-.25a7.11,7.11,0,0,1-5.48,2.38c-3.76,0-7.62-2.76-7.62-8.17,0-6.17,4.38-10.45,9.28-10.45,3.17,0,5,1.73,5.27,2.38h.17l.25-2h5.34l-1.72,16.41c-.76,7.1-6.55,8.69-10.52,8.69C95,77.23,92.87,76.92,91.8,76.16Zm6.27-10.52a4.89,4.89,0,0,0,4.93278-4.84685q.00093-.10659-.00278-.21315a3.71,3.71,0,0,0-3.89-4,5,5,0,0,0-5,5,3.74,3.74,0,0,0,3.96,4.06Z" transform="translate(0 -0.01747)" fill="url(#a)"/><path d="M112.39,52.13h5.35l-.52,5.14c.83-3,2.69-5.49,6.07-5.49a3.15,3.15,0,0,1,1.31.24l-.55,5a7.63973,7.63973,0,0,0-1.41-.1,5.76462,5.76462,0,0,0-5.94,5l-.82,8.1h-5.35Z" transform="translate(0 -0.01747)" fill="url(#b)"/><path d="M124.61,61.85a10,10,0,0,1,9.92975-10.06976L134.61,51.78c4.66,0,9.69,3.28,7.79,11.38H129.57c.59,1.93,2.35,2.9,4.62,2.9a7.49,7.49,0,0,0,4.45-1.42l2,2.56a9.89,9.89,0,0,1-7.38,3.2C128.68,70.4,124.61,67.4,124.61,61.85ZM138,59.33c-.21-2.13-1.93-3.06-3.83-3.06a4.53,4.53,0,0,0-4.41,3.06Z" transform="translate(0 -0.01747)" fill="url(#c)"/><path d="M143.86,61.85a10,10,0,0,1,9.92975-10.06976L153.86,51.78c4.66,0,9.69,3.28,7.8,11.38h-12.8c.59,1.93,2.35,2.9,4.62,2.9a7.47,7.47,0,0,0,4.45-1.42l2,2.56a9.89,9.89,0,0,1-7.38,3.2C147.93,70.4,143.86,67.4,143.86,61.85Zm13.38-2.52c-.21-2.13-1.93-3.06-3.83-3.06A4.54,4.54,0,0,0,149,59.33Z" transform="translate(0 -0.01747)" fill="url(#d)"/><path d="M165.28,52.13h5.35l-.25,2.24a6.7,6.7,0,0,1,5.49-2.59c3.58,0,6.55,2.24,6,7.73l-1.11,10.55h-5.34l1-9.62c.24-2.24-.76-3.9-3-3.9s-3.38,1.66-3.66,3.9l-1,9.62h-5.34Z" transform="translate(0 -0.01747)" fill="url(#e)"/><path d="M77.45,75.52V78.8a6.52,6.52,0,0,0,6.50992,6.53006q.02,0,.04008-.00006H188.71a6.52,6.52,0,0,0,6.52-6.52l0-.01V45a6.52,6.52,0,0,0-6.52-6.52h-31l10.94-9.38-16.41,1.5,7-20.29L146.94,20l-3.29-6.57L137.4,25.94,121.77,10.31,128,32.19l-12.5-3.13,7.21,9.38H84a6.52,6.52,0,0,0-6.55006,6.4898q-.00015.0351.00006.0702v2.29" transform="translate(0 -0.01747)" fill="none" stroke-miterlimit="10" stroke-width="6" stroke="url(#f)"/></svg>