<?xml version="1.0" encoding="utf-8"?>
<!-- Generator: Adobe Illustrator 24.1.1, SVG Export Plug-In . SVG Version: 6.00 Build 0)  -->
<svg version="1.1" id="Celular" xmlns="http://www.w3.org/2000/svg" xmlns:xlink="http://www.w3.org/1999/xlink" x="0px" y="0px"
	 viewBox="0 0 1744 1448" style="enable-background:new 0 0 1744 1448;" xml:space="preserve">
<style type="text/css">
	.st0{display:none;fill-rule:evenodd;clip-rule:evenodd;fill:#29292E;}
	.st1{fill-rule:evenodd;clip-rule:evenodd;fill:#E5E5E5;}
	.st2{fill-rule:evenodd;clip-rule:evenodd;fill:#29292E;}
	.st3{fill-rule:evenodd;clip-rule:evenodd;fill:#D3D4D5;}
	.st4{fill:none;stroke:#C3C3C3;}
	.st5{fill-rule:evenodd;clip-rule:evenodd;fill:#8257E6;}
	.st6{fill-rule:evenodd;clip-rule:evenodd;fill:#99999E;}
	.st7{fill-rule:evenodd;clip-rule:evenodd;fill:#FFFFFF;}
</style>
<path id="Forma_8" class="st0" d="M350,705c-166.1,102.3-269,490.6,81.3,663c280.4,137.9,1201.6,64.4,1227.7-638
	c19-510.4-378.8,7.1-516-180c-34.2-46.6-28.4-391.2-288.3-338.1C607.7,262.3,655.5,535.1,350,705z"/>
<path id="Forma_1" class="st1" d="M789,192c0,0,14.9-104.2,93-115s296-43,296-43s136.6-32.2,94,117c-35.1,153.7-51,225-51,225
	l-185,815c0,0-16.4,87.2-119,84c-102.2-0.2-297-9-297-9s-91.4,7.2-70-99S789,192,789,192z"/>
<path id="Forma_2" class="st2" d="M805,180c0,0,15.2-76.4,65-83c52.6-8.3,34-6,34-6s15.4-4.3,11,11c-0.9,8.8,0,12,0,12
	s-4.8,15.5,21,11s172-23,172-23s21.9-2.8,28-27c4.8-20.8,20-19,20-19l39-5c0,0,47.7-5.8,34,53c-12.1,51.8-247,1078-247,1078
	s-6.4,54.5-89,49c-81.6-0.2-143-2-143-2l-142-3c0,0-59.3,3.5-46-59c14-66.8,174-710,174-710L805,180z"/>
<path id="Forma_3" class="st3" d="M1192,425l28-125c0,0,1.3-10.3,9-9c6.5,1.6,4,11,4,11l-33,146c0,0-2.7,8-8,6
	c-5.5-2.1-5.3-8.3-4-12S1192,425,1192,425z"/>
<path id="Forma_4" class="st4" d="M1198,32c0,0,69.8-4,46,81c-18.8,86-241,1058-241,1058s-18.8,88-106,82c-87.7-2-301-6-301-6
	s-59.8,0-49-66"/>
<path id="Forma_5" class="st3" d="M1000.9,85.4l36.9-4.8c-0.7,0.4,9.8-2.9,9.1,3.8c0.5,7.3-4.5,5.8-11.8,7.3s-32.9,4.7-32.9,4.7
	s-6.1,1.6-6.1-3.9C996,89.4,998,86.5,1000.9,85.4z"/>
<path id="Logo" class="st5" d="M854.7,211.9l104.6-10.3l-1.9,6.5c-2.1,0-3.9,1.4-4.5,3.3c-1.2,4.2,2.2,4.6,2.2,4.6l-1.9,6.7
	c0,0-3.1-0.3-4.4,3.5c-0.8,4.1,2.1,4.4,2.1,4.4l-1.8,6.1l-103.8,8.4L854.7,211.9z"/>
<g id="Cotas">
	<g id="Agrupar_5_copiar_3">
		<g id="Número">
			<path id="Retângulo_1" class="st6" d="M763.4,600.4l68.7-3.6c4.6-0.2,7.6,3.5,6.6,8.3l-4,20.6c-1,4.9-5.5,9.1-10.2,9.2l-69.5,2
				c-4.2,0.1-6.8-3.6-5.7-8.3l4.5-19.6C755,604.5,759.3,600.6,763.4,600.4z"/>
			<path id="Retângulo_2" class="st7" d="M779.3,615.1l29.8-1.3c1.1-0.1,2,0.8,2.1,1.9c0,0.2,0,0.5-0.1,0.7
				c-0.3,1.5-1.6,2.6-3.1,2.8l-29.9,1.2c-1.3,0.1-2.2-1.1-1.9-2.6C776.6,616.3,777.8,615.2,779.3,615.1z"/>
		</g>
		<g id="Número_copiar">
			<path id="Retângulo_1-2" class="st6" d="M870.7,594.2l70.6-3.7c4.7-0.2,7.8,3.5,6.8,8.4l-4,20.9c-1,5-5.6,9.2-10.4,9.3
				l-71.5,2.1c-4.3,0.1-7-3.6-5.9-8.4L861,603C862.1,598.4,866.4,594.5,870.7,594.2z"/>
			<path id="Retângulo_2-2" class="st7" d="M887.1,609.1l30.7-1.3c1.1-0.1,2.1,0.8,2.1,1.9c0,0.3,0,0.5-0.1,0.7
				c-0.3,1.5-1.6,2.7-3.2,2.9l-30.7,1.2c-1.1,0-2-0.8-2-1.9c0-0.3,0-0.5,0.1-0.7C884.4,610.4,885.6,609.3,887.1,609.1z"/>
		</g>
		<g id="Número_copiar_2">
			<path id="Retângulo_1-3" class="st6" d="M982.1,587.9l72.7-3.8c4.8-0.3,8,3.5,7.1,8.5l-4,21.2c-1,5.1-5.8,9.3-10.7,9.5
				l-73.6,2.2c-4.5,0.1-7.2-3.7-6.1-8.5l4.6-20.1C973.3,592.1,977.7,588.1,982.1,587.9z"/>
			<path id="Retângulo_2-3" class="st7" d="M999.1,602.9l31.6-1.3c1.1-0.1,2.1,0.8,2.2,1.9c0,0.3,0,0.5-0.1,0.8
				c-0.3,1.6-1.7,2.7-3.3,2.9l-31.6,1.2c-1.1,0.1-2-0.8-2.1-1.9c0-0.3,0-0.5,0.1-0.8C996.3,604.3,997.5,603.1,999.1,602.9z"/>
		</g>
	</g>
	<g id="Agrupar_5_copiar_4">
		<g id="Número-2">
			<path id="Retângulo_1-4" class="st6" d="M749.2,661.1l68.6-3c4.6-0.2,7.5,3.5,6.6,8.4l-4,20.7c-1,4.9-5.5,9-10.2,9.1l-69.4,1.4
				c-4.2,0.1-6.7-3.7-5.7-8.3l4.6-19.6C740.8,665.1,745,661.2,749.2,661.1z"/>
			<path id="Retângulo_2-4" class="st7" d="M765,675.9l29.8-1c1.1,0,2,0.8,2.1,1.9c0,0.2,0,0.5-0.1,0.7c-0.3,1.5-1.6,2.6-3.1,2.8
				l-29.9,0.9c-1.1,0-1.9-0.8-2-1.9c0-0.2,0-0.5,0.1-0.7C762.3,677.2,763.5,676.1,765,675.9z"/>
		</g>
		<g id="Número_copiar-2">
			<path id="Retângulo_1-5" class="st6" d="M856.4,655.7l70.6-3.1c4.7-0.2,7.8,3.6,6.8,8.5l-4,20.9c-1,5-5.6,9.2-10.4,9.3
				l-71.4,1.5c-4.3,0.1-7-3.7-5.9-8.5l4.6-19.9C847.7,659.8,852.1,655.9,856.4,655.7z"/>
			<path id="Retângulo_2-5" class="st7" d="M872.7,670.8l30.7-1.1c1.1-0.1,2.1,0.8,2.1,1.9c0,0.2,0,0.5-0.1,0.7
				c-0.3,1.5-1.6,2.7-3.2,2.8l-30.7,1c-1.1,0-2-0.8-2-1.9c0-0.2,0-0.5,0.1-0.7C870,672.1,871.2,671,872.7,670.8z"/>
		</g>
		<g id="Número_copiar_2-2">
			<path id="Retângulo_1-6" class="st6" d="M967.7,650.3l72.6-3.2c4.8-0.2,8,3.6,7.1,8.6l-4.1,21.2c-1,5.1-5.8,9.3-10.7,9.4
				l-73.5,1.6c-4.5,0.1-7.2-3.8-6.1-8.6l4.6-20.2C958.8,654.5,963.2,650.5,967.7,650.3z"/>
			<path id="Retângulo_2-6" class="st7" d="M984.6,665.5l31.6-1.1c1.2-0.1,2.1,0.8,2.2,2c0,0.2,0,0.5-0.1,0.7
				c-0.3,1.6-1.7,2.7-3.3,2.9l-31.6,1c-1.1,0-2-0.8-2.1-1.9c0-0.3,0-0.5,0.1-0.7C981.8,666.8,983,665.7,984.6,665.5z"/>
		</g>
	</g>
	<g id="Agrupar_5_copiar_5">
		<g id="Número-3">
			<path id="Retângulo_1-7" class="st6" d="M733,722.8l68.5-2.5c4.6-0.2,7.5,3.6,6.6,8.5l-4,20.7c-1,5-5.5,9-10.1,9.1l-69.3,0.9
				c-4.2,0.1-6.7-3.7-5.6-8.4l4.6-19.6C724.6,726.8,728.8,723,733,722.8z"/>
			<path id="Retângulo_2-7" class="st7" d="M748.8,737.8l29.8-0.8c1.1,0,2,0.9,2.1,2c0,0.2,0,0.5-0.1,0.7c-0.3,1.5-1.6,2.6-3.1,2.8
				l-29.8,0.7c-1.1,0-2-0.9-2-1.9c0-0.2,0-0.5,0.1-0.7C746.1,739.1,747.3,738,748.8,737.8z"/>
		</g>
		<g id="Número_copiar-3">
			<path id="Retângulo_1-8" class="st6" d="M840,718.4l70.5-2.5c4.7-0.2,7.8,3.7,6.8,8.6l-4,21c-1,5-5.6,9.2-10.4,9.2l-71.3,0.9
				c-4.3,0.1-6.9-3.8-5.8-8.5l4.6-19.9C831.4,722.4,835.7,718.5,840,718.4z"/>
			<path id="Retângulo_2-8" class="st7" d="M856.3,733.6l30.6-0.8c1.1,0,2.1,0.8,2.1,2c0,0.2,0,0.5-0.1,0.7
				c-0.3,1.5-1.6,2.7-3.2,2.8l-30.7,0.7c-1.1,0-2-0.8-2-1.9c0-0.2,0-0.5,0.1-0.7C853.6,734.9,854.8,733.8,856.3,733.6z"/>
		</g>
		<g id="Número_copiar_2-3">
			<path id="Retângulo_1-9" class="st6" d="M951.1,713.8l72.5-2.6c4.8-0.2,8,3.7,7.1,8.7l-4.1,21.3c-1,5.1-5.8,9.3-10.7,9.4
				l-73.4,1c-4.5,0.1-7.2-3.8-6.1-8.7l4.6-20.2C942.3,717.9,946.7,714,951.1,713.8z"/>
			<path id="Retângulo_2-9" class="st7" d="M968,729.3l31.5-0.8c1.2-0.1,2.1,0.8,2.2,2c0,0.3,0,0.5-0.1,0.7
				c-0.3,1.6-1.7,2.7-3.2,2.9l-31.6,0.7c-1.1,0-2.1-0.8-2.1-2c0-0.2,0-0.5,0.1-0.7C965.2,730.6,966.5,729.4,968,729.3z"/>
		</g>
	</g>
	<g id="Agrupar_5_copiar_6">
		<g id="Número-4">
			<path id="Retângulo_1-10" class="st6" d="M718.7,782.6l68.4-1.9c4.6-0.1,7.5,3.7,6.6,8.5l-4,20.7c-1,5-5.5,9-10.1,9l-69.2,0.3
				c-4.2,0-6.7-3.8-5.6-8.5l4.6-19.7C710.3,786.6,714.5,782.8,718.7,782.6z"/>
			<path id="Retângulo_2-10" class="st7" d="M734.5,797.9l29.7-0.5c1.1,0,2.1,0.9,2.1,2c0,0.2,0,0.5-0.1,0.7
				c-0.3,1.5-1.6,2.6-3.1,2.8l-29.8,0.4c-1.1,0-2-0.9-2-2c0-0.2,0-0.5,0.1-0.7C731.7,799.1,733,798,734.5,797.9z"/>
		</g>
		<g id="Número_copiar-4">
			<path id="Retângulo_1-11" class="st6" d="M825.6,779.1l70.4-2c4.7-0.1,7.8,3.7,6.8,8.7l-4.1,21c-1,5-5.6,9.1-10.4,9.2l-71.2,0.3
				c-4.3,0-6.9-3.8-5.8-8.6l4.6-19.9C816.9,783,821.3,779.2,825.6,779.1z"/>
			<path id="Retângulo_2-11" class="st7" d="M841.9,794.5l30.6-0.6c1.2,0,2.1,0.9,2.1,2c0,0.2,0,0.5-0.1,0.7
				c-0.3,1.5-1.6,2.7-3.2,2.8l-30.6,0.5c-1.1,0-2-0.9-2-2c0-0.2,0-0.5,0.1-0.7C839.1,795.7,840.4,794.6,841.9,794.5z"/>
		</g>
		<g id="Número_copiar_2-4">
			<path id="Retângulo_1-12" class="st6" d="M936.6,775.4l72.4-2c4.8-0.1,8,3.8,7.1,8.8l-4.1,21.3c-1,5.1-5.8,9.3-10.7,9.3
				l-73.3,0.4c-4.5,0-7.2-3.9-6-8.7l4.6-20.2C927.7,779.4,932.2,775.5,936.6,775.4z"/>
			<path id="Retângulo_2-12" class="st7" d="M953.4,791l31.5-0.6c1.2,0,2.2,0.9,2.2,2.1c0,0.2,0,0.5-0.1,0.7
				c-0.3,1.6-1.7,2.7-3.3,2.9l-31.5,0.5c-1.1,0-2.1-0.9-2.1-2c0-0.2,0-0.5,0.1-0.7C950.6,792.3,951.9,791.2,953.4,791z"/>
		</g>
	</g>
	<g id="Agrupar_5_copiar_7">
		<g id="Número-5">
			<path id="Retângulo_1-13" class="st6" d="M704.3,843.6l68.3-1.4c4.6-0.1,7.5,3.8,6.6,8.6l-4,20.8c-1,5-5.5,9-10.1,9l-69.1-0.3
				c-4.2,0-6.7-3.9-5.6-8.6l4.6-19.7C696,847.5,700.2,843.7,704.3,843.6z"/>
			<path id="Retângulo_2-13" class="st7" d="M720.1,859l29.7-0.3c1.1,0,2.1,0.9,2.1,2.1c0,0.2,0,0.4-0.1,0.6
				c-0.3,1.5-1.6,2.6-3.1,2.8l-29.7,0.2c-1.1,0-2-0.9-2-2c0-0.2,0-0.4,0.1-0.7C717.4,860.2,718.6,859.1,720.1,859z"/>
		</g>
		<g id="Número_copiar-5">
			<path id="Retângulo_1-14" class="st6" d="M811.1,840.9l70.3-1.4c4.7-0.1,7.7,3.8,6.8,8.7l-4.1,21.1c-1,5-5.6,9.1-10.4,9.1
				l-71.1-0.2c-4.3,0-6.9-3.9-5.8-8.7l4.6-20C802.5,844.8,806.8,840.9,811.1,840.9z"/>
			<path id="Retângulo_2-14" class="st7" d="M827.4,856.5l30.5-0.3c1.2,0,2.1,0.9,2.1,2.1c0,0.2,0,0.4-0.1,0.7
				c-0.3,1.5-1.6,2.7-3.2,2.8l-30.6,0.2c-1.1,0-2-0.9-2-2c0-0.2,0-0.5,0.1-0.7C824.6,857.7,825.9,856.6,827.4,856.5z"/>
		</g>
		<g id="Número_copiar_2-5">
			<path id="Retângulo_1-15" class="st6" d="M922,838.1l72.4-1.5c4.8-0.1,8,3.9,7,8.9l-4.1,21.4c-1,5.1-5.8,9.3-10.6,9.3l-73.2-0.2
				c-4.5,0-7.1-4-6-8.8l4.6-20.3C913.2,842.1,917.6,838.2,922,838.1z"/>
			<path id="Retângulo_2-15" class="st7" d="M938.9,853.9l31.5-0.3c1.2,0,2.2,0.9,2.2,2.1c0,0.2,0,0.5-0.1,0.7
				c-0.3,1.6-1.7,2.7-3.3,2.8l-31.5,0.2c-1.1,0-2.1-0.9-2.1-2.1c0-0.2,0-0.5,0.1-0.7C936,855.2,937.3,854,938.9,853.9z"/>
		</g>
	</g>
	<g id="Agrupar_5_copiar_8">
		<g id="Número-6">
			<path id="Retângulo_1-16" class="st6" d="M688.1,905.6l68.2-0.8c4.6-0.1,7.5,3.8,6.5,8.7l-4.1,20.8c-1,5-5.5,9-10.1,8.9l-69-0.8
				c-4.2,0-6.7-3.9-5.6-8.7l4.6-19.7C679.7,909.4,683.9,905.6,688.1,905.6z"/>
			<path id="Retângulo_2-16" class="st7" d="M703.8,921.2l29.6,0c1.2,0,2.1,1,2.1,2.1c0,0.2,0,0.4-0.1,0.6
				c-0.3,1.5-1.6,2.6-3.1,2.7l-29.7-0.1c-1.1,0-2-0.9-2-2c0-0.2,0-0.4,0.1-0.6C701.1,922.4,702.3,921.3,703.8,921.2z"/>
		</g>
		<g id="Número_copiar-6">
			<path id="Retângulo_1-17" class="st6" d="M794.7,903.7l70.2-0.8c4.7-0.1,7.7,3.9,6.8,8.8l-4.1,21.1c-1,5.1-5.6,9.1-10.4,9.1
				l-71-0.8c-4.3-0.1-6.9-4-5.8-8.8l4.6-20C786.1,907.6,790.4,903.8,794.7,903.7z"/>
			<path id="Retângulo_2-17" class="st7" d="M810.9,919.5l30.5-0.1c1.2,0,2.1,1,2.1,2.1c0,0.2,0,0.4-0.1,0.6
				c-0.3,1.5-1.6,2.7-3.2,2.8l-30.6,0c-1.1,0-2-0.9-2-2.1c0-0.2,0-0.4,0.1-0.6C808.2,920.8,809.4,919.7,810.9,919.5z"/>
		</g>
		<g id="Número_copiar_2-6">
			<path id="Retângulo_1-18" class="st6" d="M905.4,901.9l72.3-0.9c4.8-0.1,8,3.9,7,9l-4.1,21.4c-1,5.1-5.8,9.3-10.6,9.2l-73.1-0.8
				c-4.4-0.1-7.1-4-6-8.9l4.7-20.3C896.6,905.8,901,901.9,905.4,901.9z"/>
			<path id="Retângulo_2-18" class="st7" d="M922.2,917.9l31.4-0.1c1.2,0,2.2,1,2.2,2.2c0,0.2,0,0.4-0.1,0.7
				c-0.3,1.6-1.7,2.7-3.2,2.8l-31.5,0c-1.2,0-2.1-1-2.1-2.1c0-0.2,0-0.4,0.1-0.7C919.4,919.1,920.7,918,922.2,917.9z"/>
		</g>
	</g>
	<g id="Agrupar_5_copiar_9">
		<g id="Número-7">
			<path id="Retângulo_1-19" class="st6" d="M673.7,965.7l68.2-0.2c4.5,0,7.5,3.9,6.5,8.8l-4.1,20.8c-1,5-5.5,9-10.1,8.9l-68.9-1.4
				c-4.2-0.1-6.7-4-5.6-8.7l4.6-19.8C665.3,969.5,669.6,965.7,673.7,965.7z"/>
			<path id="Retângulo_2-19" class="st7" d="M689.4,981.5l29.6,0.2c1.2,0,2.1,1,2.1,2.2c0,0.2,0,0.4-0.1,0.6
				c-0.3,1.5-1.6,2.6-3.1,2.7l-29.7-0.3c-1.1,0-2-1-1.9-2.1c0-0.2,0-0.4,0.1-0.6C686.7,982.7,687.9,981.6,689.4,981.5z"/>
		</g>
		<g id="Número_copiar-7">
			<path id="Retângulo_1-20" class="st6" d="M780.2,964.7l70.1-0.3c4.7,0,7.7,4,6.8,8.9l-4.1,21.1c-1,5.1-5.6,9.1-10.4,9l-70.9-1.4
				c-4.3-0.1-6.9-4.1-5.8-8.9l4.6-20C771.6,968.5,775.9,964.7,780.2,964.7z"/>
			<path id="Retângulo_2-20" class="st7" d="M796.4,980.7l30.5,0.2c1.2,0,2.1,1,2.1,2.2c0,0.2,0,0.4-0.1,0.6
				c-0.3,1.5-1.6,2.7-3.2,2.8l-30.5-0.3c-1.1,0-2-1-2-2.1c0-0.2,0-0.4,0.1-0.6C793.6,981.9,794.9,980.8,796.4,980.7z"/>
		</g>
		<g id="Número_copiar_2-7">
			<path id="Retângulo_1-21" class="st6" d="M890.8,963.7l72.2-0.3c4.8,0,8,4,7,9l-4.1,21.5c-1,5.1-5.8,9.2-10.6,9.1l-73-1.4
				c-4.4-0.1-7.1-4.1-6-9l4.7-20.3C882,967.6,886.4,963.7,890.8,963.7z"/>
			<path id="Retângulo_2-21" class="st7" d="M907.6,979.9l31.4,0.2c1.2,0,2.2,1,2.2,2.2c0,0.2,0,0.4-0.1,0.6
				c-0.3,1.6-1.7,2.7-3.2,2.8l-31.4-0.3c-1.2,0-2.1-1-2.1-2.2c0-0.2,0-0.4,0.1-0.6C904.7,981.2,906,980,907.6,979.9z"/>
		</g>
	</g>
	<g id="Agrupar_5_copiar_10">
		<g id="Número-8">
			<path id="Retângulo_1-22" class="st6" d="M659.3,1026.9l68.1,0.3c4.5,0,7.5,4,6.5,8.9l-4.1,20.9c-1,5-5.5,9-10.1,8.8l-68.9-2
				c-4.2-0.1-6.7-4.1-5.6-8.8l4.6-19.8C651,1030.6,655.2,1026.9,659.3,1026.9z"/>
			<path id="Retângulo_2-22" class="st7" d="M675,1042.9l29.6,0.4c1.2,0,2.1,1,2.1,2.2c0,0.2,0,0.4-0.1,0.6
				c-0.3,1.5-1.6,2.6-3.1,2.7l-29.6-0.5c-1.1-0.1-2-1-1.9-2.2c0-0.2,0-0.4,0.1-0.6C672.3,1044.1,673.5,1043,675,1042.9z"/>
		</g>
		<g id="Número_copiar-8">
			<path id="Retângulo_1-23" class="st6" d="M765.7,1026.8l70,0.3c4.7,0,7.7,4,6.8,9l-4.1,21.2c-1,5.1-5.6,9.1-10.4,9l-70.9-2
				c-4.3-0.1-6.9-4.1-5.8-8.9l4.6-20.1C757.1,1030.6,761.4,1026.8,765.7,1026.8z"/>
			<path id="Retângulo_2-23" class="st7" d="M781.9,1043l30.4,0.4c1.2,0,2.1,1,2.1,2.2c0,0.2,0,0.4-0.1,0.6
				c-0.3,1.5-1.6,2.7-3.2,2.8l-30.5-0.5c-1.2,0-2.1-1-2-2.2c0-0.2,0-0.4,0.1-0.6C779.1,1044.2,780.4,1043.1,781.9,1043z"/>
		</g>
		<g id="Número_copiar_2-8">
			<path id="Retângulo_1-24" class="st6" d="M876.2,1026.7l72.1,0.3c4.8,0,8,4.1,7,9.1l-4.1,21.5c-1,5.1-5.8,9.2-10.6,9.1l-73-2
				c-4.4-0.1-7.1-4.2-6-9.1l4.7-20.4C867.4,1030.5,871.8,1026.7,876.2,1026.7z"/>
			<path id="Retângulo_2-24" class="st7" d="M892.9,1043.1l31.3,0.4c1.2,0,2.2,1,2.2,2.3c0,0.2,0,0.4-0.1,0.6
				c-0.3,1.6-1.7,2.7-3.2,2.8l-31.4-0.6c-1.2,0-2.1-1-2.1-2.2c0-0.2,0-0.4,0.1-0.6C890.1,1044.3,891.4,1043.2,892.9,1043.1z"/>
		</g>
	</g>
	<g id="Agrupar_5_copiar_11">
		<g id="Número-9">
			<path id="Retângulo_1-25" class="st6" d="M643,1089.2l68,0.9c4.5,0.1,7.5,4.1,6.5,8.9l-4.1,20.9c-1,5-5.5,8.9-10.1,8.8
				l-68.8-2.5c-4.2-0.2-6.7-4.1-5.6-8.9l4.6-19.8C634.6,1092.8,638.9,1089.1,643,1089.2z"/>
			<path id="Retângulo_2-25" class="st7" d="M658.6,1105.3l29.5,0.7c1.2,0.1,2.1,1.1,2,2.3c0,0.2,0,0.4-0.1,0.6
				c-0.3,1.5-1.6,2.6-3.1,2.7l-29.6-0.8c-1.1-0.1-2-1.1-1.9-2.2c0-0.2,0.1-0.4,0.1-0.6C655.9,1106.5,657.1,1105.4,658.6,1105.3z"/>
		</g>
		<g id="Número_copiar-9">
			<path id="Retângulo_1-26" class="st6" d="M749.2,1089.9l69.9,0.9c4.7,0.1,7.7,4.1,6.7,9.1l-4.1,21.2c-1,5.1-5.6,9.1-10.4,8.9
				l-70.7-2.6c-4.3-0.2-6.9-4.2-5.8-9l4.6-20.1C740.6,1093.7,744.9,1089.9,749.2,1089.9z"/>
			<path id="Retângulo_2-26" class="st7" d="M765.4,1106.3l30.4,0.7c1.2,0,2.2,1.1,2.1,2.3c0,0.2,0,0.4-0.1,0.6
				c-0.3,1.5-1.6,2.7-3.2,2.7l-30.4-0.8c-1.2-0.1-2.1-1.1-2-2.2c0-0.2,0-0.4,0.1-0.6C762.6,1107.5,763.8,1106.4,765.4,1106.3z"/>
		</g>
		<g id="Número_copiar_2-9">
			<path id="Retângulo_1-27" class="st6" d="M859.5,1090.8l72,0.9c4.8,0.1,7.9,4.2,7,9.2l-4.1,21.5c-1,5.2-5.8,9.2-10.6,9
				l-72.8-2.6c-4.4-0.2-7.1-4.3-6-9.1l4.7-20.4C850.7,1094.5,855.1,1090.7,859.5,1090.8z"/>
			<path id="Retângulo_2-27" class="st7" d="M876.2,1107.4l31.3,0.7c1.2,0,2.2,1.1,2.2,2.3c0,0.2,0,0.4-0.1,0.6
				c-0.3,1.6-1.7,2.7-3.2,2.8l-31.3-0.8c-1.2-0.1-2.1-1.1-2.1-2.3c0-0.2,0-0.4,0.1-0.6C873.4,1108.6,874.7,1107.5,876.2,1107.4z"/>
		</g>
	</g>
</g>
<path id="Retângulo_Arredondado_1" class="st6" d="M841.9,321.8l272.2-23.6c8.4-0.7,13.8,4.4,12.2,11.5L1098,429.5
	c-1.7,7.2-9.9,13.5-18.4,14l-273.6,16.6c-7.6,0.5-12.3-4.7-10.5-11.6l29.5-113.5C826.8,328.4,834.4,322.4,841.9,321.8z"/>
</svg>
